<mxfile host="app.diagrams.net" modified="2024-01-02T06:36:47.310Z" agent="Mozilla/5.0 (Windows NT 10.0; Win64; x64; rv:121.0) Gecko/20100101 Firefox/121.0" etag="dzB7OpjjMAg71xitufIx" version="22.1.16" type="github">
  <diagram name="Page-1" id="9SaJzH31xsGCSRo-3_ZO">
    <mxGraphModel dx="1194" dy="752" grid="1" gridSize="10" guides="1" tooltips="1" connect="1" arrows="1" fold="1" page="1" pageScale="1" pageWidth="850" pageHeight="1100" math="0" shadow="0">
      <root>
        <mxCell id="0" />
        <mxCell id="1" parent="0" />
        <mxCell id="koUDRyLc9pjYRCoRXefC-47" value="" style="rounded=1;whiteSpace=wrap;html=1;fillColor=#eeeeee;strokeColor=#36393d;" vertex="1" parent="1">
          <mxGeometry x="45" y="180" width="760" height="250" as="geometry" />
        </mxCell>
        <mxCell id="koUDRyLc9pjYRCoRXefC-44" value="" style="rounded=1;whiteSpace=wrap;html=1;fillColor=#eeeeee;strokeColor=#36393d;" vertex="1" parent="1">
          <mxGeometry x="33" y="910" width="784" height="480" as="geometry" />
        </mxCell>
        <mxCell id="koUDRyLc9pjYRCoRXefC-14" style="edgeStyle=orthogonalEdgeStyle;rounded=0;orthogonalLoop=1;jettySize=auto;html=1;startArrow=classic;startFill=1;endArrow=none;endFill=0;" edge="1" parent="1" source="koUDRyLc9pjYRCoRXefC-10" target="koUDRyLc9pjYRCoRXefC-11">
          <mxGeometry relative="1" as="geometry">
            <Array as="points">
              <mxPoint x="505" y="290" />
              <mxPoint x="505" y="290" />
            </Array>
          </mxGeometry>
        </mxCell>
        <mxCell id="koUDRyLc9pjYRCoRXefC-10" value="Cart" style="rounded=1;whiteSpace=wrap;html=1;" vertex="1" parent="1">
          <mxGeometry x="445" y="340" width="120" height="60" as="geometry" />
        </mxCell>
        <mxCell id="koUDRyLc9pjYRCoRXefC-11" value="" style="outlineConnect=0;dashed=0;verticalLabelPosition=bottom;verticalAlign=top;align=center;html=1;shape=mxgraph.aws3.queue;fillColor=#D9A741;gradientColor=none;" vertex="1" parent="1">
          <mxGeometry x="245" y="210" width="320" height="60" as="geometry" />
        </mxCell>
        <mxCell id="koUDRyLc9pjYRCoRXefC-13" style="edgeStyle=orthogonalEdgeStyle;rounded=0;orthogonalLoop=1;jettySize=auto;html=1;startArrow=none;startFill=0;endArrow=classic;endFill=1;" edge="1" parent="1" source="koUDRyLc9pjYRCoRXefC-12" target="koUDRyLc9pjYRCoRXefC-11">
          <mxGeometry relative="1" as="geometry">
            <Array as="points">
              <mxPoint x="305" y="300" />
              <mxPoint x="305" y="300" />
            </Array>
          </mxGeometry>
        </mxCell>
        <mxCell id="koUDRyLc9pjYRCoRXefC-12" value="Order" style="rounded=1;whiteSpace=wrap;html=1;" vertex="1" parent="1">
          <mxGeometry x="245" y="340" width="120" height="60" as="geometry" />
        </mxCell>
        <mxCell id="koUDRyLc9pjYRCoRXefC-15" value="" style="outlineConnect=0;dashed=0;verticalLabelPosition=bottom;verticalAlign=top;align=center;html=1;shape=mxgraph.aws3.queue;fillColor=#D9A741;gradientColor=none;" vertex="1" parent="1">
          <mxGeometry x="187" y="950" width="560" height="60" as="geometry" />
        </mxCell>
        <mxCell id="koUDRyLc9pjYRCoRXefC-26" style="edgeStyle=orthogonalEdgeStyle;rounded=0;orthogonalLoop=1;jettySize=auto;html=1;" edge="1" parent="1" source="koUDRyLc9pjYRCoRXefC-16" target="koUDRyLc9pjYRCoRXefC-15">
          <mxGeometry relative="1" as="geometry">
            <Array as="points">
              <mxPoint x="707" y="1020" />
              <mxPoint x="707" y="1020" />
            </Array>
          </mxGeometry>
        </mxCell>
        <mxCell id="koUDRyLc9pjYRCoRXefC-16" value="Cart" style="rounded=1;whiteSpace=wrap;html=1;" vertex="1" parent="1">
          <mxGeometry x="607" y="1299" width="160" height="60" as="geometry" />
        </mxCell>
        <mxCell id="koUDRyLc9pjYRCoRXefC-23" style="edgeStyle=orthogonalEdgeStyle;rounded=0;orthogonalLoop=1;jettySize=auto;html=1;" edge="1" parent="1" source="koUDRyLc9pjYRCoRXefC-17" target="koUDRyLc9pjYRCoRXefC-15">
          <mxGeometry relative="1" as="geometry">
            <Array as="points">
              <mxPoint x="227" y="1020" />
              <mxPoint x="227" y="1020" />
            </Array>
          </mxGeometry>
        </mxCell>
        <mxCell id="koUDRyLc9pjYRCoRXefC-17" value="Order" style="rounded=1;whiteSpace=wrap;html=1;" vertex="1" parent="1">
          <mxGeometry x="157" y="1290" width="120" height="60" as="geometry" />
        </mxCell>
        <mxCell id="koUDRyLc9pjYRCoRXefC-19" style="edgeStyle=orthogonalEdgeStyle;rounded=0;orthogonalLoop=1;jettySize=auto;html=1;entryX=0;entryY=0.5;entryDx=0;entryDy=0;" edge="1" parent="1" source="koUDRyLc9pjYRCoRXefC-18" target="koUDRyLc9pjYRCoRXefC-12">
          <mxGeometry relative="1" as="geometry" />
        </mxCell>
        <mxCell id="koUDRyLc9pjYRCoRXefC-18" value="Actor" style="shape=umlActor;verticalLabelPosition=bottom;verticalAlign=top;html=1;outlineConnect=0;" vertex="1" parent="1">
          <mxGeometry x="75" y="340" width="30" height="60" as="geometry" />
        </mxCell>
        <mxCell id="koUDRyLc9pjYRCoRXefC-20" value="Orchestrator" style="rounded=1;whiteSpace=wrap;html=1;" vertex="1" parent="1">
          <mxGeometry x="337" y="1290" width="220" height="60" as="geometry" />
        </mxCell>
        <mxCell id="koUDRyLc9pjYRCoRXefC-21" value="RabbitMQ" style="text;html=1;align=center;verticalAlign=middle;resizable=0;points=[];autosize=1;strokeColor=none;fillColor=none;" vertex="1" parent="1">
          <mxGeometry x="375" y="180" width="80" height="30" as="geometry" />
        </mxCell>
        <mxCell id="koUDRyLc9pjYRCoRXefC-22" value="RabbitMQ" style="text;html=1;align=center;verticalAlign=middle;resizable=0;points=[];autosize=1;strokeColor=none;fillColor=none;" vertex="1" parent="1">
          <mxGeometry x="437" y="920" width="80" height="30" as="geometry" />
        </mxCell>
        <mxCell id="koUDRyLc9pjYRCoRXefC-27" style="edgeStyle=orthogonalEdgeStyle;rounded=0;orthogonalLoop=1;jettySize=auto;html=1;entryX=0.082;entryY=0.033;entryDx=0;entryDy=0;entryPerimeter=0;" edge="1" parent="1" source="koUDRyLc9pjYRCoRXefC-15" target="koUDRyLc9pjYRCoRXefC-20">
          <mxGeometry relative="1" as="geometry">
            <Array as="points">
              <mxPoint x="355" y="1050" />
              <mxPoint x="355" y="1050" />
            </Array>
          </mxGeometry>
        </mxCell>
        <mxCell id="koUDRyLc9pjYRCoRXefC-28" style="edgeStyle=orthogonalEdgeStyle;rounded=0;orthogonalLoop=1;jettySize=auto;html=1;entryX=0.082;entryY=0.033;entryDx=0;entryDy=0;entryPerimeter=0;startArrow=classic;startFill=1;endArrow=none;endFill=0;" edge="1" parent="1">
          <mxGeometry relative="1" as="geometry">
            <mxPoint x="379" y="1010" as="sourcePoint" />
            <mxPoint x="379" y="1292" as="targetPoint" />
            <Array as="points">
              <mxPoint x="379" y="1050" />
              <mxPoint x="379" y="1050" />
            </Array>
          </mxGeometry>
        </mxCell>
        <mxCell id="koUDRyLc9pjYRCoRXefC-29" style="edgeStyle=orthogonalEdgeStyle;rounded=0;orthogonalLoop=1;jettySize=auto;html=1;entryX=0.082;entryY=0.033;entryDx=0;entryDy=0;entryPerimeter=0;" edge="1" parent="1">
          <mxGeometry relative="1" as="geometry">
            <mxPoint x="503" y="1009" as="sourcePoint" />
            <mxPoint x="503" y="1291" as="targetPoint" />
            <Array as="points">
              <mxPoint x="503" y="1049" />
              <mxPoint x="503" y="1049" />
            </Array>
          </mxGeometry>
        </mxCell>
        <mxCell id="koUDRyLc9pjYRCoRXefC-30" style="edgeStyle=orthogonalEdgeStyle;rounded=0;orthogonalLoop=1;jettySize=auto;html=1;entryX=0.082;entryY=0.033;entryDx=0;entryDy=0;entryPerimeter=0;" edge="1" parent="1">
          <mxGeometry relative="1" as="geometry">
            <mxPoint x="540" y="1009" as="sourcePoint" />
            <mxPoint x="540" y="1291" as="targetPoint" />
            <Array as="points">
              <mxPoint x="540" y="1049" />
              <mxPoint x="540" y="1049" />
            </Array>
          </mxGeometry>
        </mxCell>
        <mxCell id="koUDRyLc9pjYRCoRXefC-31" value="E01" style="text;html=1;strokeColor=#82b366;fillColor=#d5e8d4;align=center;verticalAlign=middle;whiteSpace=wrap;overflow=hidden;" vertex="1" parent="1">
          <mxGeometry x="177" y="1020" width="40" height="20" as="geometry" />
        </mxCell>
        <mxCell id="koUDRyLc9pjYRCoRXefC-32" value="E01" style="text;html=1;strokeColor=#82b366;fillColor=#d5e8d4;align=center;verticalAlign=middle;whiteSpace=wrap;overflow=hidden;" vertex="1" parent="1">
          <mxGeometry x="307" y="1260" width="40" height="20" as="geometry" />
        </mxCell>
        <mxCell id="koUDRyLc9pjYRCoRXefC-34" value="&lt;div&gt;C01&lt;/div&gt;" style="text;html=1;strokeColor=#b85450;fillColor=#f8cecc;align=center;verticalAlign=middle;whiteSpace=wrap;overflow=hidden;" vertex="1" parent="1">
          <mxGeometry x="387" y="1020" width="40" height="20" as="geometry" />
        </mxCell>
        <mxCell id="koUDRyLc9pjYRCoRXefC-36" value="E02" style="text;html=1;strokeColor=#82b366;fillColor=#d5e8d4;align=center;verticalAlign=middle;whiteSpace=wrap;overflow=hidden;" vertex="1" parent="1">
          <mxGeometry x="452" y="1260" width="40" height="20" as="geometry" />
        </mxCell>
        <mxCell id="koUDRyLc9pjYRCoRXefC-37" value="E03" style="text;html=1;strokeColor=#82b366;fillColor=#d5e8d4;align=center;verticalAlign=middle;whiteSpace=wrap;overflow=hidden;" vertex="1" parent="1">
          <mxGeometry x="557" y="1260" width="40" height="20" as="geometry" />
        </mxCell>
        <mxCell id="koUDRyLc9pjYRCoRXefC-38" value="E03" style="text;html=1;strokeColor=#82b366;fillColor=#d5e8d4;align=center;verticalAlign=middle;whiteSpace=wrap;overflow=hidden;" vertex="1" parent="1">
          <mxGeometry x="737" y="1020" width="40" height="20" as="geometry" />
        </mxCell>
        <mxCell id="koUDRyLc9pjYRCoRXefC-39" style="edgeStyle=orthogonalEdgeStyle;rounded=0;orthogonalLoop=1;jettySize=auto;html=1;" edge="1" parent="1">
          <mxGeometry relative="1" as="geometry">
            <mxPoint x="727" y="1299" as="sourcePoint" />
            <mxPoint x="727" y="1009" as="targetPoint" />
            <Array as="points">
              <mxPoint x="727" y="1019" />
              <mxPoint x="727" y="1019" />
            </Array>
          </mxGeometry>
        </mxCell>
        <mxCell id="koUDRyLc9pjYRCoRXefC-41" value="E02" style="text;html=1;strokeColor=#82b366;fillColor=#d5e8d4;align=center;verticalAlign=middle;whiteSpace=wrap;overflow=hidden;" vertex="1" parent="1">
          <mxGeometry x="658" y="1020" width="40" height="20" as="geometry" />
        </mxCell>
        <mxCell id="koUDRyLc9pjYRCoRXefC-42" style="edgeStyle=orthogonalEdgeStyle;rounded=0;orthogonalLoop=1;jettySize=auto;html=1;startArrow=classic;startFill=1;endArrow=none;endFill=0;" edge="1" parent="1">
          <mxGeometry relative="1" as="geometry">
            <mxPoint x="638" y="1298" as="sourcePoint" />
            <mxPoint x="638" y="1009" as="targetPoint" />
            <Array as="points">
              <mxPoint x="638" y="1019" />
              <mxPoint x="638" y="1019" />
            </Array>
          </mxGeometry>
        </mxCell>
        <mxCell id="koUDRyLc9pjYRCoRXefC-43" value="&lt;div&gt;C01&lt;/div&gt;" style="text;html=1;strokeColor=#b85450;fillColor=#f8cecc;align=center;verticalAlign=middle;whiteSpace=wrap;overflow=hidden;" vertex="1" parent="1">
          <mxGeometry x="647" y="1260" width="40" height="20" as="geometry" />
        </mxCell>
        <mxCell id="koUDRyLc9pjYRCoRXefC-46" style="edgeStyle=orthogonalEdgeStyle;rounded=0;orthogonalLoop=1;jettySize=auto;html=1;entryX=0;entryY=0.5;entryDx=0;entryDy=0;" edge="1" parent="1" source="koUDRyLc9pjYRCoRXefC-45" target="koUDRyLc9pjYRCoRXefC-17">
          <mxGeometry relative="1" as="geometry" />
        </mxCell>
        <mxCell id="koUDRyLc9pjYRCoRXefC-45" value="Actor" style="shape=umlActor;verticalLabelPosition=bottom;verticalAlign=top;html=1;outlineConnect=0;" vertex="1" parent="1">
          <mxGeometry x="63" y="1290" width="30" height="60" as="geometry" />
        </mxCell>
        <mxCell id="koUDRyLc9pjYRCoRXefC-48" value="E01" style="text;html=1;strokeColor=#82b366;fillColor=#d5e8d4;align=center;verticalAlign=middle;whiteSpace=wrap;overflow=hidden;" vertex="1" parent="1">
          <mxGeometry x="245" y="280" width="40" height="20" as="geometry" />
        </mxCell>
        <mxCell id="koUDRyLc9pjYRCoRXefC-49" value="E01" style="text;html=1;strokeColor=#82b366;fillColor=#d5e8d4;align=center;verticalAlign=middle;whiteSpace=wrap;overflow=hidden;" vertex="1" parent="1">
          <mxGeometry x="515" y="310" width="40" height="20" as="geometry" />
        </mxCell>
      </root>
    </mxGraphModel>
  </diagram>
</mxfile>
